<mxfile host="app.diagrams.net" agent="Mozilla/5.0 (Windows NT 10.0; Win64; x64) AppleWebKit/537.36 (KHTML, like Gecko) Chrome/131.0.0.0 Safari/537.36" version="25.0.3">
  <diagram name="Page-1" id="VyQCb97SJ5hlUOh8IzrA">
    <mxGraphModel dx="1185" dy="627" grid="1" gridSize="10" guides="1" tooltips="1" connect="1" arrows="1" fold="1" page="1" pageScale="1" pageWidth="850" pageHeight="1100" background="#ffffff" math="0" shadow="0">
      <root>
        <mxCell id="0" />
        <mxCell id="1" parent="0" />
        <mxCell id="Gx5kOMbrrntl0cK6UcOV-9" style="edgeStyle=orthogonalEdgeStyle;rounded=0;orthogonalLoop=1;jettySize=auto;html=1;startArrow=classicThin;startFill=1;shape=link;strokeColor=#B3B3B3;" edge="1" parent="1" source="XtwM7-bZTlJAIus_auYy-1" target="XtwM7-bZTlJAIus_auYy-3">
          <mxGeometry relative="1" as="geometry" />
        </mxCell>
        <mxCell id="Gx5kOMbrrntl0cK6UcOV-10" value="1. Send Events" style="edgeLabel;html=1;align=center;verticalAlign=middle;resizable=0;points=[];" vertex="1" connectable="0" parent="Gx5kOMbrrntl0cK6UcOV-9">
          <mxGeometry x="0.1992" y="-3" relative="1" as="geometry">
            <mxPoint as="offset" />
          </mxGeometry>
        </mxCell>
        <mxCell id="XtwM7-bZTlJAIus_auYy-1" value="Winows 10 Client&lt;div&gt;Wazuh Agent&lt;/div&gt;" style="fontColor=#0066CC;verticalAlign=top;verticalLabelPosition=bottom;labelPosition=center;align=center;html=1;outlineConnect=0;fillColor=#CCCCCC;strokeColor=#6881B3;gradientColor=none;gradientDirection=north;strokeWidth=2;shape=mxgraph.networks.pc;direction=east;" parent="1" vertex="1">
          <mxGeometry x="360" y="720" width="100" height="70" as="geometry" />
        </mxCell>
        <mxCell id="XtwM7-bZTlJAIus_auYy-2" value="" style="sketch=0;points=[[0.5,0,0],[1,0.5,0],[0.5,1,0],[0,0.5,0],[0.145,0.145,0],[0.8555,0.145,0],[0.855,0.8555,0],[0.145,0.855,0]];verticalLabelPosition=bottom;html=1;verticalAlign=top;aspect=fixed;align=center;pointerEvents=1;shape=mxgraph.cisco19.rect;prIcon=router;fillColor=#FAFAFA;strokeColor=#005073;" parent="1" vertex="1">
          <mxGeometry x="400" y="540" width="50" height="50" as="geometry" />
        </mxCell>
        <mxCell id="Gx5kOMbrrntl0cK6UcOV-12" value="" style="edgeStyle=orthogonalEdgeStyle;rounded=0;orthogonalLoop=1;jettySize=auto;html=1;shape=link;strokeColor=#B3B3B3;" edge="1" parent="1" source="XtwM7-bZTlJAIus_auYy-3" target="Gx5kOMbrrntl0cK6UcOV-4">
          <mxGeometry relative="1" as="geometry" />
        </mxCell>
        <mxCell id="XtwM7-bZTlJAIus_auYy-3" value="Router" style="sketch=0;points=[[0.5,0,0],[1,0.5,0],[0.5,1,0],[0,0.5,0],[0.145,0.145,0],[0.8555,0.145,0],[0.855,0.8555,0],[0.145,0.855,0]];verticalLabelPosition=bottom;html=1;verticalAlign=top;aspect=fixed;align=center;pointerEvents=1;shape=mxgraph.cisco19.rect;prIcon=router;fillColor=#FAFAFA;strokeColor=#005073;" parent="1" vertex="1">
          <mxGeometry x="400" y="540" width="50" height="50" as="geometry" />
        </mxCell>
        <mxCell id="Gx5kOMbrrntl0cK6UcOV-13" style="edgeStyle=orthogonalEdgeStyle;rounded=0;orthogonalLoop=1;jettySize=auto;html=1;shape=link;strokeColor=#B3B3B3;" edge="1" parent="1" source="Gx5kOMbrrntl0cK6UcOV-4" target="Gx5kOMbrrntl0cK6UcOV-6">
          <mxGeometry relative="1" as="geometry" />
        </mxCell>
        <mxCell id="Gx5kOMbrrntl0cK6UcOV-14" value="2. Receive Events" style="edgeLabel;html=1;align=center;verticalAlign=middle;resizable=0;points=[];" vertex="1" connectable="0" parent="Gx5kOMbrrntl0cK6UcOV-13">
          <mxGeometry x="-0.1233" relative="1" as="geometry">
            <mxPoint as="offset" />
          </mxGeometry>
        </mxCell>
        <mxCell id="Gx5kOMbrrntl0cK6UcOV-30" style="rounded=0;orthogonalLoop=1;jettySize=auto;html=1;shape=link;strokeColor=#9673a6;fillColor=#e1d5e7;" edge="1" parent="1" source="Gx5kOMbrrntl0cK6UcOV-4" target="Gx5kOMbrrntl0cK6UcOV-7">
          <mxGeometry relative="1" as="geometry">
            <Array as="points">
              <mxPoint x="350" y="360" />
            </Array>
          </mxGeometry>
        </mxCell>
        <mxCell id="Gx5kOMbrrntl0cK6UcOV-4" value="Internet" style="image;aspect=fixed;perimeter=ellipsePerimeter;html=1;align=center;shadow=0;dashed=0;spacingTop=3;image=img/lib/active_directory/internet_cloud.svg;" vertex="1" parent="1">
          <mxGeometry x="390" y="410" width="50" height="31.5" as="geometry" />
        </mxCell>
        <mxCell id="Gx5kOMbrrntl0cK6UcOV-5" value="TheHive" style="image;aspect=fixed;perimeter=ellipsePerimeter;html=1;align=center;shadow=0;dashed=0;spacingTop=3;image=img/lib/active_directory/internet_cloud.svg;" vertex="1" parent="1">
          <mxGeometry x="670" y="410" width="50" height="31.5" as="geometry" />
        </mxCell>
        <mxCell id="Gx5kOMbrrntl0cK6UcOV-15" style="rounded=0;orthogonalLoop=1;jettySize=auto;html=1;shape=link;strokeColor=#3399FF;" edge="1" parent="1" source="Gx5kOMbrrntl0cK6UcOV-6" target="Gx5kOMbrrntl0cK6UcOV-7">
          <mxGeometry relative="1" as="geometry" />
        </mxCell>
        <mxCell id="Gx5kOMbrrntl0cK6UcOV-16" value="3. Send Alerts" style="edgeLabel;html=1;align=center;verticalAlign=middle;resizable=0;points=[];" vertex="1" connectable="0" parent="Gx5kOMbrrntl0cK6UcOV-15">
          <mxGeometry x="0.0235" y="1" relative="1" as="geometry">
            <mxPoint as="offset" />
          </mxGeometry>
        </mxCell>
        <mxCell id="Gx5kOMbrrntl0cK6UcOV-31" style="edgeStyle=orthogonalEdgeStyle;rounded=0;orthogonalLoop=1;jettySize=auto;html=1;shape=link;strokeColor=#9673a6;fillColor=#e1d5e7;" edge="1" parent="1" source="Gx5kOMbrrntl0cK6UcOV-6" target="Gx5kOMbrrntl0cK6UcOV-7">
          <mxGeometry relative="1" as="geometry">
            <Array as="points">
              <mxPoint x="180" y="216" />
            </Array>
          </mxGeometry>
        </mxCell>
        <mxCell id="Gx5kOMbrrntl0cK6UcOV-32" value="8. Send Response Action" style="edgeLabel;html=1;align=center;verticalAlign=middle;resizable=0;points=[];" vertex="1" connectable="0" parent="Gx5kOMbrrntl0cK6UcOV-31">
          <mxGeometry x="-0.4683" y="1" relative="1" as="geometry">
            <mxPoint as="offset" />
          </mxGeometry>
        </mxCell>
        <mxCell id="Gx5kOMbrrntl0cK6UcOV-33" style="edgeStyle=orthogonalEdgeStyle;rounded=0;orthogonalLoop=1;jettySize=auto;html=1;shape=link;strokeColor=#9673a6;fillColor=#e1d5e7;" edge="1" parent="1" source="Gx5kOMbrrntl0cK6UcOV-6" target="XtwM7-bZTlJAIus_auYy-1">
          <mxGeometry relative="1" as="geometry">
            <Array as="points">
              <mxPoint x="180" y="755" />
            </Array>
          </mxGeometry>
        </mxCell>
        <mxCell id="Gx5kOMbrrntl0cK6UcOV-34" value="8. Perform Responsive Action" style="edgeLabel;html=1;align=center;verticalAlign=middle;resizable=0;points=[];" vertex="1" connectable="0" parent="Gx5kOMbrrntl0cK6UcOV-33">
          <mxGeometry x="-0.3664" y="2" relative="1" as="geometry">
            <mxPoint as="offset" />
          </mxGeometry>
        </mxCell>
        <mxCell id="Gx5kOMbrrntl0cK6UcOV-6" value="Wazuh Manager" style="image;aspect=fixed;perimeter=ellipsePerimeter;html=1;align=center;shadow=0;dashed=0;spacingTop=3;image=img/lib/active_directory/internet_cloud.svg;" vertex="1" parent="1">
          <mxGeometry x="160" y="410" width="50" height="31.5" as="geometry" />
        </mxCell>
        <mxCell id="Gx5kOMbrrntl0cK6UcOV-17" style="edgeStyle=orthogonalEdgeStyle;rounded=0;orthogonalLoop=1;jettySize=auto;html=1;shape=link;strokeColor=#66FF66;" edge="1" parent="1" source="Gx5kOMbrrntl0cK6UcOV-7" target="Gx5kOMbrrntl0cK6UcOV-4">
          <mxGeometry relative="1" as="geometry" />
        </mxCell>
        <mxCell id="Gx5kOMbrrntl0cK6UcOV-18" value="4. Enrich IOCS" style="edgeLabel;html=1;align=center;verticalAlign=middle;resizable=0;points=[];" vertex="1" connectable="0" parent="Gx5kOMbrrntl0cK6UcOV-17">
          <mxGeometry x="0.0123" y="3" relative="1" as="geometry">
            <mxPoint as="offset" />
          </mxGeometry>
        </mxCell>
        <mxCell id="Gx5kOMbrrntl0cK6UcOV-19" style="rounded=0;orthogonalLoop=1;jettySize=auto;html=1;shape=link;strokeColor=#3399FF;" edge="1" parent="1" source="Gx5kOMbrrntl0cK6UcOV-7" target="Gx5kOMbrrntl0cK6UcOV-5">
          <mxGeometry relative="1" as="geometry" />
        </mxCell>
        <mxCell id="Gx5kOMbrrntl0cK6UcOV-20" value="5. Send Alerts" style="edgeLabel;html=1;align=center;verticalAlign=middle;resizable=0;points=[];" vertex="1" connectable="0" parent="Gx5kOMbrrntl0cK6UcOV-19">
          <mxGeometry x="-0.0491" relative="1" as="geometry">
            <mxPoint as="offset" />
          </mxGeometry>
        </mxCell>
        <mxCell id="Gx5kOMbrrntl0cK6UcOV-21" style="rounded=0;orthogonalLoop=1;jettySize=auto;html=1;entryX=1;entryY=0.25;entryDx=0;entryDy=0;shape=link;elbow=vertical;strokeColor=none;" edge="1" parent="1" source="Gx5kOMbrrntl0cK6UcOV-7" target="Gx5kOMbrrntl0cK6UcOV-4">
          <mxGeometry relative="1" as="geometry" />
        </mxCell>
        <mxCell id="Gx5kOMbrrntl0cK6UcOV-23" style="rounded=0;orthogonalLoop=1;jettySize=auto;html=1;entryX=1;entryY=0.5;entryDx=0;entryDy=0;shape=link;strokeColor=none;" edge="1" parent="1" source="Gx5kOMbrrntl0cK6UcOV-7" target="Gx5kOMbrrntl0cK6UcOV-4">
          <mxGeometry relative="1" as="geometry">
            <Array as="points">
              <mxPoint x="490" y="390" />
            </Array>
          </mxGeometry>
        </mxCell>
        <mxCell id="Gx5kOMbrrntl0cK6UcOV-24" style="rounded=0;orthogonalLoop=1;jettySize=auto;html=1;entryX=1;entryY=0.25;entryDx=0;entryDy=0;shape=link;strokeColor=#FF8000;" edge="1" parent="1" source="Gx5kOMbrrntl0cK6UcOV-7" target="Gx5kOMbrrntl0cK6UcOV-4">
          <mxGeometry relative="1" as="geometry">
            <Array as="points">
              <mxPoint x="500" y="360" />
            </Array>
          </mxGeometry>
        </mxCell>
        <mxCell id="Gx5kOMbrrntl0cK6UcOV-25" value="6. Send Email" style="edgeLabel;html=1;align=center;verticalAlign=middle;resizable=0;points=[];" vertex="1" connectable="0" parent="Gx5kOMbrrntl0cK6UcOV-24">
          <mxGeometry x="0.0299" y="2" relative="1" as="geometry">
            <mxPoint as="offset" />
          </mxGeometry>
        </mxCell>
        <mxCell id="Gx5kOMbrrntl0cK6UcOV-7" value="Shuffle" style="image;aspect=fixed;perimeter=ellipsePerimeter;html=1;align=center;shadow=0;dashed=0;spacingTop=3;image=img/lib/active_directory/internet_cloud.svg;imageBackground=none;" vertex="1" parent="1">
          <mxGeometry x="400" y="200" width="50" height="31.5" as="geometry" />
        </mxCell>
        <mxCell id="Gx5kOMbrrntl0cK6UcOV-8" value="SOC Analyst" style="fontColor=#0066CC;verticalAlign=top;verticalLabelPosition=bottom;labelPosition=center;align=center;html=1;outlineConnect=0;fillColor=#CCCCCC;strokeColor=#6881B3;gradientColor=none;gradientDirection=north;strokeWidth=2;shape=mxgraph.networks.pc;direction=east;" vertex="1" parent="1">
          <mxGeometry x="680" y="590" width="100" height="70" as="geometry" />
        </mxCell>
        <mxCell id="Gx5kOMbrrntl0cK6UcOV-26" style="rounded=0;orthogonalLoop=1;jettySize=auto;html=1;entryX=1.024;entryY=0.817;entryDx=0;entryDy=0;entryPerimeter=0;shape=link;strokeColor=#FF8000;" edge="1" parent="1" source="Gx5kOMbrrntl0cK6UcOV-8" target="Gx5kOMbrrntl0cK6UcOV-4">
          <mxGeometry relative="1" as="geometry" />
        </mxCell>
        <mxCell id="Gx5kOMbrrntl0cK6UcOV-27" value="7. Send &amp;amp; Receive Email" style="edgeLabel;html=1;align=center;verticalAlign=middle;resizable=0;points=[];" vertex="1" connectable="0" parent="Gx5kOMbrrntl0cK6UcOV-26">
          <mxGeometry x="0.0102" y="-3" relative="1" as="geometry">
            <mxPoint as="offset" />
          </mxGeometry>
        </mxCell>
        <mxCell id="Gx5kOMbrrntl0cK6UcOV-28" style="rounded=0;orthogonalLoop=1;jettySize=auto;html=1;entryX=0.827;entryY=0.988;entryDx=0;entryDy=0;entryPerimeter=0;shape=link;fillColor=#e1d5e7;strokeColor=#9673a6;" edge="1" parent="1" source="Gx5kOMbrrntl0cK6UcOV-8" target="Gx5kOMbrrntl0cK6UcOV-4">
          <mxGeometry relative="1" as="geometry">
            <Array as="points">
              <mxPoint x="540" y="620" />
            </Array>
          </mxGeometry>
        </mxCell>
        <mxCell id="Gx5kOMbrrntl0cK6UcOV-29" value="8. Send Response Action" style="edgeLabel;html=1;align=center;verticalAlign=middle;resizable=0;points=[];" vertex="1" connectable="0" parent="Gx5kOMbrrntl0cK6UcOV-28">
          <mxGeometry x="-0.065" y="2" relative="1" as="geometry">
            <mxPoint as="offset" />
          </mxGeometry>
        </mxCell>
      </root>
    </mxGraphModel>
  </diagram>
</mxfile>
